# xmcd
#
# Track frame offsets:
#	150
#	22606
#	48210
#	65824
#	88938
#	115766
#	139595
#	164983
#	192035
#	221168
#
# Disc length: 3259 seconds
#
# Revision: 2
# Processed by: cddbd v1.5.2PL0 Copyright (c) Steve Scherf et al.
# Submitted via: EasyCDDAExtractor 16.0.9.1
#
DISCID=8d0cb90a
DTITLE=Vũ Khanh and La Sương Sương - DXCD140: Nhớ Em Hà Nội
DYEAR=1997
DGENRE=Country
TTITLE0=Vũ Khanh - Nhớ Mùa Thu Hà Nội (Trịnh Công Sơn)
TTITLE1=La Sương Sương - Có Phải Em Mùa Thu Hà Nội? (Trần Quang Lộc)
TTITLE2=Vũ Khanh - Đoản Khúc Thu Hà Nội (Trịnh Công Sơn)
TTITLE3=La Sương Sương - Hà Nội Mùa Vắng Những Cơn Mưa (Nhạc: Trương Quý Hải, 
TTITLE3=Thơ: Bùi Thanh Tuấn)
TTITLE4=Vũ Khanh - Nhớ Em Hà Nội © (Song Ngọc)
TTITLE5=La Sương Sương - Hà Nội Mùa Lá Bay (Hữu Xuân)
TTITLE6=Vũ Khanh - Hà Nội Đêm Trở Gió (Nhạc: Trọng Đài, Thơ: Chu Lai)
TTITLE7=La Sương Sương - Hướng Về Hà Nội (Hoàng Dương)
TTITLE8=Vũ Khanh - Hà Nội Ngày Tháng Cũ (Song Ngọc)
TTITLE9=La Sương Sương - Một Thoáng Tây Hồ (Phó Đức Phương)
EXTD=
EXTT0=
EXTT1=
EXTT2=
EXTT3=
EXTT4=
EXTT5=
EXTT6=
EXTT7=
EXTT8=
EXTT9=
PLAYORDER=
